<svg width="1600" height="1100" viewBox="0 0 1600 1100" fill="none" xmlns="http://www.w3.org/2000/svg">
  <rect width="1600" height="1100" fill="#D8B18A"/>
  <rect y="80" width="1600" height="1020" fill="url(#bg)"/>
  <rect x="120" y="170" width="540" height="700" rx="28" fill="#F6EEE4" fill-opacity="0.66"/>
  <rect x="720" y="210" width="660" height="520" rx="30" fill="#FAF4EC" fill-opacity="0.54"/>
  <rect x="790" y="310" width="500" height="260" rx="24" fill="#F3E4D4" fill-opacity="0.78"/>
  <rect x="870" y="270" width="80" height="370" rx="40" fill="#E8CBAA" fill-opacity="0.8"/>
  <rect x="980" y="270" width="80" height="370" rx="40" fill="#E1BD96" fill-opacity="0.82"/>
  <rect x="1090" y="270" width="80" height="370" rx="40" fill="#D6AC80" fill-opacity="0.84"/>
  <ellipse cx="1360" cy="210" rx="180" ry="150" fill="#F8EBD7" fill-opacity="0.62"/>
  <path d="M170 870C340 760 560 710 880 730C1110 744 1290 806 1440 910V1100H170V870Z" fill="#9A6B2F" fill-opacity="0.18"/>
  <text x="120" y="945" fill="#5A3D28" font-family="Georgia, serif" font-size="54">Editorial Clinic Interior</text>
  <text x="120" y="1004" fill="#7A5230" font-family="Arial, sans-serif" font-size="26" letter-spacing="4">WARM LIGHT  /  QUIET LUXURY  /  CALM PRIVACY</text>
  <defs>
    <linearGradient id="bg" x1="800" y1="80" x2="800" y2="1100" gradientUnits="userSpaceOnUse">
      <stop stop-color="#E8C7A3"/>
      <stop offset="1" stop-color="#C79568"/>
    </linearGradient>
  </defs>
</svg>
