<svg width="1200" height="1400" viewBox="0 0 1200 1400" fill="none" xmlns="http://www.w3.org/2000/svg">
  <rect width="1200" height="1400" fill="#D8B18A"/>
  <rect width="1200" height="1400" fill="url(#bg)"/>
  <ellipse cx="620" cy="430" rx="170" ry="210" fill="#E7BE95"/>
  <rect x="380" y="640" width="470" height="520" rx="220" fill="#7A5230" fill-opacity="0.82"/>
  <path d="M455 420C455 295 530 220 625 220C720 220 785 300 785 420C785 540 705 620 620 620C530 620 455 545 455 420Z" fill="#F1D4B6"/>
  <path d="M480 365C505 260 565 205 640 205C710 205 775 255 792 350C742 315 664 292 548 318L480 365Z" fill="#6A432B"/>
  <rect x="510" y="420" width="42" height="14" rx="7" fill="#7A5230" fill-opacity="0.62"/>
  <rect x="650" y="420" width="42" height="14" rx="7" fill="#7A5230" fill-opacity="0.62"/>
  <path d="M575 520C610 548 640 548 676 520" stroke="#C48765" stroke-width="10" stroke-linecap="round"/>
  <text x="110" y="1250" fill="#5A3D28" font-family="Georgia, serif" font-size="46">Lead Specialist Portrait</text>
  <text x="110" y="1300" fill="#7A5230" font-family="Arial, sans-serif" font-size="22" letter-spacing="3">ELEGANT  /  ASSURED  /  MEDICALLY GUIDED</text>
  <defs>
    <linearGradient id="bg" x1="600" y1="0" x2="600" y2="1400" gradientUnits="userSpaceOnUse">
      <stop stop-color="#E5C19A"/>
      <stop offset="1" stop-color="#B27846"/>
    </linearGradient>
  </defs>
</svg>
